<svg xmlns="http://www.w3.org/2000/svg" width="20" height="14" viewBox="0 0 20 14" fill="none">
    <path d="M17.6708 8H1.5C0.947715 8 0.5 7.55228 0.5 7C0.5 6.44772 0.947715 6 1.5 6H17.6708C17.5725 5.73746 17.3907 5.44118 17.0313 5.01793C16.6308 4.54612 16.0711 3.98532 15.2674 3.18162L13.7929 1.70711C13.4024 1.31658 13.4024 0.683418 13.7929 0.292893C14.1834 -0.0976311 14.8166 -0.0976311 15.2071 0.292893L16.7119 1.79767C17.4782 2.56399 18.0964 3.18215 18.556 3.72358C19.0293 4.28106 19.393 4.82271 19.5984 5.45492C19.9247 6.45913 19.9247 7.54087 19.5984 8.54508C19.393 9.17729 19.0293 9.71894 18.556 10.2764C18.0964 10.8179 17.4783 11.436 16.7119 12.2023L15.2071 13.7071C14.8166 14.0976 14.1834 14.0976 13.7929 13.7071C13.4024 13.3166 13.4024 12.6834 13.7929 12.2929L15.2674 10.8184C16.0711 10.0147 16.6308 9.45388 17.0313 8.98207C17.3907 8.55882 17.5725 8.26254 17.6708 8Z" fill="white"/>
  </svg>