<svg xmlns="http://www.w3.org/2000/svg" width="24" height="24" viewBox="0 0 24 24" fill="none">
  <path fill-rule="evenodd" clip-rule="evenodd" d="M5.60476 16.3047C7.51367 16.3047 9.06109 18.0267 9.06109 20.1509C9.06109 22.2752 7.51367 23.9972 5.60476 23.9972C3.69585 23.9972 2.14844 22.2752 2.14844 20.1509C2.14844 18.0268 3.69585 16.3047 5.60476 16.3047ZM5.60476 17.2928C4.18623 17.2928 3.03625 18.5725 3.03625 20.1511C3.03625 21.7296 4.18623 23.0093 5.60476 23.0093C7.02329 23.0093 8.17327 21.7296 8.17327 20.1511C8.17327 18.5724 7.02329 17.2928 5.60476 17.2928Z" fill="#60A5FA"/>
  <path fill-rule="evenodd" clip-rule="evenodd" d="M5.59976 17.2969C7.01829 17.2969 8.16827 18.5766 8.16827 20.1551C8.16827 21.7337 7.01829 23.0134 5.59976 23.0134C4.18123 23.0134 3.03125 21.7337 3.03125 20.1551C3.03125 18.5764 4.18123 17.2969 5.59976 17.2969ZM5.59976 18.3732C4.71541 18.3732 3.99855 19.1709 3.99855 20.155C3.99855 21.1393 4.71541 21.937 5.59976 21.937C6.48411 21.937 7.2011 21.1391 7.2011 20.155C7.20097 19.1709 6.48411 18.3732 5.59976 18.3732Z" fill="#60A5FA"/>
  <path d="M5.60268 22.1793C4.5993 22.1793 3.78564 21.2739 3.78564 20.1573C3.78564 19.0407 4.5993 18.1353 5.60268 18.1353C6.60607 18.1353 7.41972 19.0407 7.41972 20.1573C7.41972 21.2739 6.60607 22.1793 5.60268 22.1793ZM5.60268 17.5391C4.30318 17.5391 3.25 18.7112 3.25 20.1573C3.25 21.6034 4.30331 22.7755 5.60268 22.7755C6.90218 22.7755 7.95549 21.6034 7.95549 20.1573C7.95549 18.7114 6.90218 17.5391 5.60268 17.5391Z" fill="#60A5FA"/>
  <path fill-rule="evenodd" clip-rule="evenodd" d="M5.29002 19.5176C5.33223 19.4917 5.37657 19.4715 5.4221 19.4569L5.50825 18.2109H5.60331H5.69851L5.78466 19.4569C5.83006 19.4715 5.87453 19.4918 5.91674 19.5176L6.7694 18.7045L6.83664 18.7793L6.90388 18.8541L6.17304 19.803C6.19634 19.8499 6.21445 19.8994 6.22763 19.95L7.34739 20.0458V20.1516V20.2576L6.22763 20.3534C6.21458 20.4039 6.19634 20.4533 6.17304 20.5004L6.90388 21.4493L6.83664 21.5239L6.7694 21.5988L5.91674 20.7855C5.87453 20.8114 5.83019 20.8315 5.78466 20.8462L5.69851 22.0923H5.60331H5.50825L5.4221 20.8464C5.37657 20.8317 5.33223 20.8113 5.29002 20.7856L4.43736 21.5988L4.37012 21.5239L4.30288 21.4491L5.03372 20.5003C5.01042 20.4533 4.99231 20.4038 4.97913 20.3533L3.85938 20.2574V20.1515V20.0457L4.97913 19.9498C4.99231 19.8993 5.01055 19.8498 5.03372 19.8028L4.30288 18.854L4.37012 18.7792L4.43736 18.7043L5.29002 19.5176Z" fill="#60A5FA"/>
  <path fill-rule="evenodd" clip-rule="evenodd" d="M20.5461 21.0185C20.9761 21.0185 21.3266 20.6282 21.3266 20.1498C21.3266 19.6714 20.9761 19.2812 20.5461 19.2812C20.1162 19.2812 19.7656 19.6714 19.7656 20.1498C19.7656 20.6282 20.1162 21.0185 20.5461 21.0185Z" fill="#60A5FA"/>
  <path fill-rule="evenodd" clip-rule="evenodd" d="M21.0981 19.5434C21.4029 19.8826 21.4029 20.4324 21.0981 20.7717C20.7933 21.1109 20.2991 21.1109 19.9942 20.7717C19.6894 20.4324 19.6894 19.8826 19.9942 19.5434C20.299 19.2043 20.7932 19.2043 21.0981 19.5434Z" fill="#60A5FA"/>
  <path fill-rule="evenodd" clip-rule="evenodd" d="M21.3268 20.1498C21.3268 20.6296 20.9772 21.0185 20.5461 21.0185C20.1151 21.0185 19.7656 20.6297 19.7656 20.1498C19.7656 19.6702 20.115 19.2812 20.5461 19.2812C20.9772 19.2814 21.3268 19.6702 21.3268 20.1498Z" fill="#60A5FA"/>
  <path fill-rule="evenodd" clip-rule="evenodd" d="M21.098 20.7717C20.7932 21.1109 20.299 21.1109 19.9942 20.7717C19.6894 20.4326 19.6894 19.8826 19.9942 19.5434C20.299 19.2043 20.7932 19.2043 21.098 19.5434C21.4029 19.8826 21.4029 20.4326 21.098 20.7717Z" fill="#60A5FA"/>
  <path fill-rule="evenodd" clip-rule="evenodd" d="M20.5461 21.0185C20.115 21.0185 19.7656 20.6297 19.7656 20.1499C19.7656 19.6702 20.1151 19.2812 20.5461 19.2812C20.9772 19.2812 21.3266 19.6702 21.3266 20.1499C21.3266 20.6296 20.9772 21.0185 20.5461 21.0185Z" fill="#60A5FA"/>
  <path fill-rule="evenodd" clip-rule="evenodd" d="M19.9942 20.7717C19.6894 20.4326 19.6894 19.8826 19.9942 19.5434C20.299 19.2043 20.7932 19.2043 21.098 19.5434C21.4027 19.8826 21.4027 20.4326 21.098 20.7717C20.7932 21.1109 20.299 21.1109 19.9942 20.7717Z" fill="#60A5FA"/>
  <path fill-rule="evenodd" clip-rule="evenodd" d="M19.7656 20.1498C19.7656 19.6702 20.1151 19.2812 20.5461 19.2812C20.9772 19.2812 21.3266 19.6702 21.3266 20.1498C21.3266 20.6296 20.9772 21.0185 20.5461 21.0185C20.115 21.0185 19.7656 20.6296 19.7656 20.1498Z" fill="#60A5FA"/>
  <path fill-rule="evenodd" clip-rule="evenodd" d="M20.5423 16.3047C22.4512 16.3047 23.9986 18.0267 23.9986 20.1509C23.9986 22.2752 22.4512 23.9972 20.5423 23.9972C18.6334 23.9972 17.0859 22.2752 17.0859 20.1509C17.0859 18.0268 18.6334 16.3047 20.5423 16.3047ZM20.5423 17.2928C19.1237 17.2928 17.9738 18.5725 17.9738 20.1511C17.9738 21.7296 19.1237 23.0093 20.5423 23.0093C21.9608 23.0093 23.1108 21.7296 23.1108 20.1511C23.1108 18.5724 21.9608 17.2928 20.5423 17.2928Z" fill="#60A5FA"/>
  <path fill-rule="evenodd" clip-rule="evenodd" d="M20.5373 17.2969C21.9558 17.2969 23.1058 18.5766 23.1058 20.1551C23.1058 21.7337 21.9558 23.0134 20.5373 23.0134C19.1187 23.0134 17.9688 21.7337 17.9688 20.1551C17.9688 18.5764 19.1187 17.2969 20.5373 17.2969ZM20.5373 18.3732C19.6529 18.3732 18.9359 19.1709 18.9359 20.155C18.9359 21.1393 19.6529 21.937 20.5373 21.937C21.4216 21.937 22.1385 21.1391 22.1385 20.155C22.1385 19.1709 21.4217 18.3732 20.5373 18.3732Z" fill="#60A5FA"/>
  <path d="M20.5403 22.1793C19.5369 22.1793 18.7233 21.2739 18.7233 20.1573C18.7233 19.0407 19.5369 18.1353 20.5403 18.1353C21.5437 18.1353 22.3573 19.0407 22.3573 20.1573C22.3573 21.2739 21.5437 22.1793 20.5403 22.1793ZM20.5403 17.5391C19.2409 17.5391 18.1875 18.7112 18.1875 20.1573C18.1875 21.6034 19.2408 22.7755 20.5403 22.7755C21.8398 22.7755 22.8931 21.6034 22.8931 20.1573C22.8931 18.7114 21.8398 17.5391 20.5403 17.5391Z" fill="#60A5FA"/>
  <path fill-rule="evenodd" clip-rule="evenodd" d="M20.2353 19.5176C20.2775 19.4917 20.322 19.4715 20.3676 19.4569L20.4537 18.2109H20.5488H20.6438L20.73 19.4569C20.7755 19.4715 20.8198 19.4918 20.8621 19.5176L21.7149 18.7045L21.7821 18.7793L21.8493 18.8541L21.1185 19.803C21.1418 19.8499 21.1599 19.8994 21.1731 19.95L22.2928 20.0458V20.1516V20.2576L21.1731 20.3534C21.1599 20.4039 21.1417 20.4533 21.1185 20.5004L21.8493 21.4493L21.7821 21.5241L21.7147 21.5989L20.8621 20.7856C20.8198 20.8115 20.7755 20.8317 20.73 20.8464L20.6438 22.0924H20.5488H20.4537L20.3676 20.8465C20.322 20.8318 20.2777 20.8114 20.2355 20.7858L19.3828 21.5989L19.3156 21.5241L19.2483 21.4493L19.9792 20.5004C19.9559 20.4534 19.9376 20.4039 19.9244 20.3534L18.8047 20.2576V20.1516V20.0458L19.9244 19.95C19.9376 19.8994 19.9559 19.8499 19.9792 19.803L19.2483 18.8541L19.3156 18.7793L19.3828 18.7045L20.2353 19.5176Z" fill="#60A5FA"/>
  <path fill-rule="evenodd" clip-rule="evenodd" d="M17.5938 15.2932L18.2202 14.8906L20.8324 19.9924C20.9309 20.1847 20.8406 20.3858 20.7 20.5423C20.5594 20.6987 20.3045 20.5873 20.2059 20.395L17.5938 15.2932Z" fill="#60A5FA"/>
  <path fill-rule="evenodd" clip-rule="evenodd" d="M20.5444 15.2344C20.947 15.2344 21.3371 15.2945 21.7077 15.4067C21.8196 15.4406 21.9006 15.5313 21.9304 15.6561C21.9602 15.781 21.9304 15.9044 21.8484 15.9958L16.8092 21.6034C16.7272 21.6947 16.6162 21.728 16.5041 21.6949C16.392 21.6617 16.3105 21.5714 16.2798 21.4468C16.1789 21.0345 16.125 20.6004 16.125 20.1523C16.125 17.4364 18.1037 15.2344 20.5444 15.2344Z" fill="#60A5FA"/>
  <path fill-rule="evenodd" clip-rule="evenodd" d="M5.46596 14.2759L12.3224 14.1641C11.028 16.9931 10.9709 19.0384 12.3224 20.7447H9.18138L8.95916 20.5002H1.3925C1.20077 20.5002 1.03581 20.417 0.90945 20.2563C0.783228 20.0959 0.730902 19.9028 0.7562 19.6914C1.10105 16.818 2.67815 14.6855 5.18701 14.5371C5.48633 14.5195 5.52308 14.3505 5.46596 14.2759Z" fill="#60A5FA"/>
  <path fill-rule="evenodd" clip-rule="evenodd" d="M11.2862 20.3576H11.6328C10.579 18.5307 10.9604 16.5051 11.771 14.5547L11.4998 14.5591C11.2618 14.563 11.0606 14.7177 10.973 14.9639C10.3734 16.6508 10.1325 18.366 10.7582 19.9719C10.8514 20.2112 11.0518 20.3576 11.2862 20.3576Z" fill="#60A5FA"/>
  <path fill-rule="evenodd" clip-rule="evenodd" d="M9.1178 20.5712H12.1747C13.1472 20.5712 14.4539 20.7266 15.065 19.5973L17.7475 14.6404C18.0886 14.0099 18.0922 13.5284 17.9074 12.6708L17.2944 9.82676C17.2399 9.57398 17.2149 9.375 17.4326 9.375H17.7138C17.9826 9.375 18.2096 9.57339 18.2731 9.86424L18.8159 12.3484C18.9256 12.8508 19.298 14.5116 19.0602 14.9557L15.7777 21.0841H15.5751H14.3119H9.05469C9.08345 20.9159 9.10462 20.7448 9.1178 20.5712Z" fill="#60A5FA"/>
  <path fill-rule="evenodd" clip-rule="evenodd" d="M15.7083 21.0469H9.00296C8.95836 21.0469 8.92188 21.0873 8.92188 21.1371V21.4705C8.92188 21.5203 8.95836 21.5607 9.00296 21.5607H15.7083C15.7529 21.5607 15.7894 21.5203 15.7894 21.4705V21.1371C15.7894 21.0875 15.7529 21.0469 15.7083 21.0469Z" fill="#60A5FA"/>
  <path fill-rule="evenodd" clip-rule="evenodd" d="M5.58917 15.0703C8.06141 15.0703 10.1041 17.1177 10.4226 19.7719C10.4454 19.9616 10.3984 20.1345 10.2852 20.2785C10.1719 20.4225 10.024 20.4972 9.85195 20.4972H1.32625C1.15436 20.4972 1.0063 20.4225 0.892994 20.2785C0.77982 20.1346 0.73282 19.9614 0.755588 19.7719C1.07421 17.1178 3.11692 15.0703 5.58917 15.0703Z" fill="#60A5FA"/>
  <path fill-rule="evenodd" clip-rule="evenodd" d="M5.60034 15.6016C7.69924 15.6016 9.43347 17.3397 9.70388 19.593C9.72319 19.7541 9.68338 19.9009 9.58725 20.0233C9.57473 20.039 9.56168 20.0539 9.54837 20.0677C9.01845 18.2031 7.45133 16.8513 5.60034 16.8513C3.74948 16.8513 2.18236 18.2032 1.65244 20.0677C1.63899 20.0539 1.62595 20.039 1.61356 20.0233C1.51743 19.901 1.47762 19.7539 1.49693 19.593C1.76721 17.3395 3.50143 15.6016 5.60034 15.6016Z" fill="#60A5FA"/>
  <path fill-rule="evenodd" clip-rule="evenodd" d="M5.34763 12.8672H12.3529C12.4367 12.8672 12.5053 12.9435 12.5053 13.0367V14.1064C12.5053 14.1996 12.4367 14.2759 12.3529 14.2759H5.34763C5.26388 14.2759 5.19531 14.1996 5.19531 14.1064V13.0367C5.19531 12.9435 5.26375 12.8672 5.34763 12.8672Z" fill="#60A5FA"/>
  <path fill-rule="evenodd" clip-rule="evenodd" d="M0.285464 4.33594H8.35688C8.51399 4.33594 8.64247 4.47892 8.64247 4.65375V12.5341C8.64247 12.7089 8.51399 12.8519 8.35688 12.8519H0.285464C0.128352 12.8519 0 12.7089 0 12.5341V4.65375C0 4.47877 0.128485 4.33594 0.285464 4.33594Z" fill="#60A5FA"/>
  <path fill-rule="evenodd" clip-rule="evenodd" d="M0.752844 4.82031H7.89969C8.03883 4.82031 8.15267 4.94685 8.15267 5.10168V7.99743C5.60174 9.14839 2.28948 6.4651 0.5 10.2429V5.10168C0.5 4.94699 0.61384 4.82031 0.752844 4.82031Z" fill="#60A5FA"/>
  <path fill-rule="evenodd" clip-rule="evenodd" d="M4.32037 6.28125C5.46635 6.28125 6.39531 7.315 6.39531 8.59027C6.39531 8.64376 6.39358 8.69695 6.39052 8.74955L5.3629 8.2846L5.79016 7.83166L3.1889 6.65448C3.51444 6.41845 3.90296 6.28125 4.32037 6.28125ZM6.0434 9.87679C5.67086 10.4933 5.03829 10.8991 4.32037 10.8991C3.25121 10.8991 2.37099 9.99932 2.25781 8.84304L3.56237 9.13122L3.04071 9.68417L6.0434 9.87679Z" fill="#60A5FA"/>
  <path fill-rule="evenodd" clip-rule="evenodd" d="M2.61741 6.8125L1.27344 8.23697L4.28838 8.90297L3.86112 9.35591L7.29667 9.57624L4.74334 8.42084L5.17074 7.9679L2.61741 6.8125Z" fill="#60A5FA"/>
  <path fill-rule="evenodd" clip-rule="evenodd" d="M19.3079 10.4458C19.4825 10.4294 19.6556 10.8313 19.6946 11.3437C19.7336 11.8559 19.6238 12.2845 19.4492 12.301C19.2748 12.3174 19.1016 11.9155 19.0626 11.4032C19.0235 10.8909 19.1334 10.4622 19.3079 10.4458Z" fill="#60A5FA"/>
  <path fill-rule="evenodd" clip-rule="evenodd" d="M19.2353 10.3217L19.2396 10.3211C19.3024 10.3134 19.3594 10.3639 19.3666 10.434L19.5555 12.2735C19.5627 12.3434 19.5174 12.407 19.4546 12.4153L19.4503 12.4157C18.8628 12.4905 18.3383 12.0823 18.2789 11.5039C18.2197 10.9259 18.6477 10.3965 19.2353 10.3217Z" fill="#60A5FA"/>
  <path fill-rule="evenodd" clip-rule="evenodd" d="M19.0547 10.3615L19.2962 12.4243C19.3485 12.4253 19.4017 12.4225 19.4553 12.4157L19.4596 12.4152C19.5224 12.4069 19.5677 12.3434 19.5605 12.2734L19.3716 10.434C19.3644 10.364 19.3074 10.3135 19.2446 10.3211L19.2403 10.3217C19.1762 10.3297 19.1143 10.3431 19.0547 10.3615Z" fill="#60A5FA"/>
  <path fill-rule="evenodd" clip-rule="evenodd" d="M17.6006 9.60243L16.3284 9.23868C16.2625 9.21987 16.1947 9.26447 16.1777 9.33781L16.1445 9.48153C16.1275 9.55472 16.1676 9.63029 16.2336 9.64911L17.5058 10.0127C17.5717 10.0317 17.6395 9.98692 17.6564 9.91373L17.6896 9.77001C17.7066 9.69681 17.6665 9.6214 17.6006 9.60243Z" fill="#60A5FA"/>
  <path d="M12.3809 19.5457C12.3264 19.6771 12.2676 19.8082 12.2405 19.9497C12.2136 20.0914 12.2223 20.248 12.2953 20.3679C12.4339 20.5954 12.7276 20.6018 12.974 20.5842C13.0953 20.5754 13.2165 20.5669 13.3378 20.5581C13.493 20.547 13.6737 20.5191 13.7511 20.3688C13.8199 20.235 13.7728 20.0681 13.733 19.9204C13.6431 19.5864 13.599 19.2372 13.603 18.8887C13.6042 18.7852 13.609 18.678 13.5743 18.582C13.5258 18.4479 13.406 18.3586 13.2805 18.3205C12.9975 18.235 12.7823 18.2423 12.7054 18.5451C12.6181 18.8878 12.5151 19.2215 12.3809 19.5457Z" fill="#60A5FA"/>
  <path d="M13.3524 14.8545C13.4156 14.9313 13.4805 15.0129 13.5033 15.1138C13.5243 15.2072 13.5065 15.3059 13.4818 15.3982C13.3734 15.8052 13.1347 16.1737 13.1134 16.5976C13.107 16.725 13.1207 16.8543 13.0992 16.9797C13.0749 17.1205 13.008 17.2468 12.9422 17.3701C12.8558 17.5319 12.7692 17.6937 12.6828 17.8555C12.6292 17.956 12.5735 18.0646 12.5802 18.1813C12.5925 18.4012 12.8074 18.5267 12.9953 18.5965C13.1041 18.6369 13.2402 18.6666 13.3202 18.5751C13.3529 18.5377 13.3689 18.4862 13.384 18.4366C13.7099 17.3603 14.0358 16.2842 14.3616 15.2079C14.4431 14.9387 14.5246 14.6431 14.4346 14.3773C14.3355 14.0848 14.0617 13.9215 13.8095 13.7841C13.5752 13.6562 13.3408 13.5283 13.1066 13.4004C12.9016 13.2886 12.6228 13.1905 12.4723 13.3818C12.2623 13.6489 12.4654 13.8672 12.6361 14.0097C12.9009 14.2309 13.1286 14.5827 13.3524 14.8545Z" fill="#60A5FA"/>
  <path d="M12.8642 19.6417C12.7825 19.8698 12.6991 20.1096 12.7228 20.3538C12.7279 20.407 12.7398 20.463 12.7742 20.5001C12.8035 20.532 12.8448 20.5453 12.8844 20.557C13.5689 20.7596 14.2937 20.7908 14.9903 20.648C15.0912 20.6274 15.1952 20.6012 15.2759 20.531C15.3567 20.4606 15.4068 20.3338 15.3659 20.229C15.3155 20.1002 15.1669 20.0699 15.0413 20.054C14.8167 20.0257 14.5874 19.9857 14.3905 19.8623C14.1936 19.7389 14.0333 19.5147 14.0314 19.2631C14.0301 19.0721 14.1054 18.8414 13.9761 18.7159C13.9145 18.6562 13.8266 18.6475 13.745 18.6414C13.4742 18.6218 13.3328 18.5567 13.1685 18.7776C13.0236 18.9724 12.9465 19.4036 12.8642 19.6417Z" fill="#60A5FA"/>
  <path d="M9.41855 7.06175C8.83657 8.27938 8.54232 9.63717 8.25352 10.9784C8.22809 11.0968 8.20253 11.2215 8.23182 11.3389C8.26098 11.4564 8.36523 11.5601 8.47215 11.5343C8.47375 11.6497 8.47534 11.7653 8.47694 11.8807C8.62247 12.1144 8.88197 12.2345 9.13668 12.2587C9.39125 12.2828 9.64569 12.2236 9.89561 12.1647C10.4364 12.0375 10.9773 11.91 11.5181 11.7828C11.627 11.7571 11.745 11.7256 11.8142 11.6285C11.8835 11.5315 11.858 11.35 11.7483 11.3291C12.1321 11.2523 12.2933 10.7499 12.3826 10.3275C12.4724 9.90358 12.562 9.47967 12.6517 9.05577C12.7942 8.3825 12.9373 7.70257 12.9457 7.01093C12.9518 6.49946 12.907 5.9148 13.2328 5.55402C13.3346 5.44126 13.4708 5.35414 13.5214 5.20449C13.5988 4.97513 13.4381 4.73851 13.2888 4.55849C13.0943 4.32409 12.8999 4.08969 12.7054 3.85529C12.674 3.81751 12.6379 3.77692 12.5917 3.77366C12.5377 3.7698 12.4933 3.81766 12.4565 3.86181C12.1729 4.20334 11.9912 4.33876 11.6236 4.53893C11.2972 4.71658 10.995 4.94594 10.7199 5.20953C10.2188 5.68959 9.66766 6.36878 9.41855 7.06175Z" fill="#60A5FA"/>
  <path d="M10.4559 7.9676C10.3776 8.7311 10.5448 9.56646 11.0534 10.0859C11.3955 10.4352 11.8581 10.6097 12.3196 10.6658C12.781 10.7222 13.247 10.6697 13.7087 10.6172C13.7375 10.5584 13.7662 10.4999 13.795 10.4412C13.9052 10.484 14.0156 10.527 14.126 10.5698C14.166 10.5166 14.2059 10.4632 14.246 10.4098C14.2851 10.5404 14.4241 10.622 14.543 10.5844C14.5799 10.2301 14.6736 9.88339 14.8185 9.56527C13.9797 9.38096 13.1294 9.19249 12.3633 8.77021C12.2417 8.70324 12.1066 8.62842 11.9764 8.67124C12.0777 8.04998 12.1053 7.4139 12.0581 6.78479C12.0358 6.4855 11.99 6.17064 11.817 5.94024C11.0041 4.85715 10.507 7.46917 10.4559 7.9676Z" fill="#60A5FA"/>
  <path d="M12.0985 6.39949C12.0767 6.25384 12.0521 6.10656 11.9943 5.97366C11.9342 5.83542 11.8032 5.704 11.6722 5.75245C11.5131 5.81112 11.5091 6.05722 11.5361 6.24124C11.6152 6.77923 11.6943 7.31723 11.7735 7.85522C11.8297 8.23734 11.8847 8.63783 11.773 9.00439C11.8469 8.99624 11.9209 8.98809 11.9948 8.9798C11.9997 9.07062 12.0048 9.1613 12.0097 9.25213C12.581 9.43704 13.1689 9.55838 13.7616 9.6138C13.7491 9.37021 13.4794 9.2739 13.2657 9.21893C13.0103 9.1533 12.746 9.06544 12.5114 8.93342C12.2197 8.7694 12.2572 8.70999 12.2534 8.33898C12.2463 7.68927 12.1945 7.0403 12.0985 6.39949Z" fill="#60A5FA"/>
  <path d="M12.9758 5.50306C13.1024 5.40097 13.2183 5.28229 13.3201 5.15027C13.2173 5.00744 13.1146 4.86446 13.0119 4.72163C12.9962 4.69985 12.9797 4.67748 12.9572 4.66547C12.9148 4.6431 12.8632 4.66429 12.8278 4.69837C12.7336 4.78845 12.7226 4.95262 12.7683 5.08108C12.8139 5.20954 12.9043 5.31074 12.9923 5.40823" fill="#60A5FA"/>
  <path d="M11.7754 11.2426C11.6705 11.3464 11.5143 11.3451 11.374 11.3376C11.3054 11.3338 11.2335 11.3291 11.1755 11.2885C11.1173 11.2479 11.0805 11.1589 11.1147 11.0928C11.1474 11.03 11.2229 11.0177 11.288 11.014C11.3814 11.0086 11.4769 11.0066 11.565 10.9711C11.653 10.9359 11.7341 10.8599 11.7532 10.7578C11.8263 10.7124 11.9264 10.7719 11.953 10.8602C11.9796 10.9485 11.9465 11.0483 11.8906 11.1175C11.8348 11.187 11.7592 11.2321 11.6853 11.2758" fill="#60A5FA"/>
  <path d="M9.16748 13.0437C9.52924 13.2752 9.9569 13.3334 10.3714 13.3867C10.8335 13.4463 11.2955 13.506 11.7578 13.5656C12.3972 13.648 13.1082 13.7739 13.4988 14.343C13.5392 14.4018 13.5809 14.4689 13.6454 14.4866C13.716 14.506 13.7858 14.4592 13.8557 14.4365C13.9256 14.414 14.0245 14.4375 14.0317 14.5181C13.9562 14.5941 13.9142 14.7099 13.9209 14.8229C13.9735 14.8128 14.0261 14.8029 14.0787 14.793C14.1096 14.934 14.027 15.0709 13.9569 15.1932C13.7377 15.5752 13.6024 16.0161 13.5662 16.4674C13.5404 16.788 13.559 17.1318 13.4087 17.4069C13.3407 17.5315 13.2419 17.6326 13.172 17.7562C13.1081 17.8691 13.0696 17.9994 13.0608 18.1323C13.0315 18.5751 13.3983 19.0088 13.7959 18.9719C14.2033 18.9341 14.4775 18.5023 14.6742 18.1036C15.2761 16.8839 15.716 15.5529 15.8588 14.1705C15.8825 13.9412 15.8975 13.7038 15.8347 13.4838C15.6931 12.9865 15.2135 12.7271 14.7777 12.5349C14.0389 12.2093 13.2883 11.9166 12.5283 11.6582C12.3214 11.5879 12.1117 11.5196 11.8958 11.5037C11.7035 11.4898 11.511 11.5176 11.3199 11.5453C10.5857 11.6526 9.85145 11.7597 9.11728 11.8667C8.77656 11.9165 8.50162 11.8553 8.62291 12.3201C8.7028 12.6262 8.92369 12.8876 9.16748 13.0437Z" fill="#60A5FA"/>
  <path d="M14.1236 12.9687C14.3426 13.0626 14.5676 13.1607 14.7383 13.3397C15.1483 13.7695 15.1131 14.509 14.9375 15.1045C14.7619 15.6999 14.4749 16.2759 14.4791 16.9025C14.5624 16.9848 14.6813 16.8608 14.7333 16.751C15.1139 15.9459 15.3609 15.0628 15.4581 14.1596C15.4838 13.9215 15.4951 13.6633 15.381 13.46C15.2825 13.2847 15.1086 13.1832 14.9416 13.0925C14.0904 12.6305 13.0119 11.981 12.0628 11.8672C12.0385 12.3378 13.7687 12.8163 14.1236 12.9687Z" fill="#60A5FA"/>
  <path d="M15.2843 10.4596C15.3689 10.4623 15.4546 10.465 15.5369 10.4435C15.8508 10.3613 16.0281 9.96018 16.3376 9.85957C16.3567 9.8532 16.3768 9.84831 16.3962 9.85261C16.424 9.85868 16.4459 9.88224 16.4648 9.9058C16.515 9.96803 16.5588 10.038 16.6192 10.0873C16.6797 10.1369 16.7637 10.1627 16.8304 10.1242C16.897 10.0855 16.9207 9.96655 16.8602 9.91706C16.8887 9.991 16.9771 10.0277 17.0421 9.99233C17.1071 9.95706 17.1357 9.85691 17.1008 9.78638C17.1317 9.84342 17.1969 9.87424 17.2553 9.85942C17.3136 9.84461 17.3603 9.78534 17.366 9.71911C17.3743 9.62177 17.3045 9.54087 17.2459 9.46782C17.1602 9.36114 17.0886 9.24098 16.9991 9.13815C16.9097 9.03518 16.7971 8.94806 16.6693 8.93235C16.568 8.9199 16.4668 8.95309 16.3702 8.99014C16.1533 9.0734 15.9431 9.17786 15.7427 9.30217C15.5835 9.40085 15.43 9.51227 15.2619 9.5908C15.094 9.66933 14.9067 9.71348 14.7287 9.67007C14.6187 9.64325 14.4596 10.3039 14.5094 10.3973C14.5523 10.4777 14.754 10.4426 14.8364 10.4451C14.9858 10.4499 15.135 10.4548 15.2843 10.4596Z" fill="#60A5FA"/>
  <path d="M15.9338 2.77936C16.0144 2.92383 16.1968 2.97494 16.2606 3.12963C16.039 3.22431 15.8586 3.4313 15.7804 3.68066C15.6871 3.97758 15.7249 4.33985 15.5329 4.57054C15.3606 4.77753 15.0676 4.78968 14.8215 4.72256C14.5752 4.65544 14.3425 4.52461 14.0903 4.49513C13.7765 4.45853 13.4501 4.59247 13.2328 4.84702C13.1822 4.90643 13.1222 4.97859 13.0496 4.96407C12.9996 4.95414 12.9644 4.9054 12.9341 4.85991C12.8129 4.67856 12.6916 4.4972 12.5703 4.31585C12.7433 4.10515 12.8403 3.81949 12.8362 3.53427C12.8329 3.31247 12.7711 3.09659 12.7574 2.87538C12.7073 2.06847 13.3347 1.35134 14.0409 1.1605C14.5923 1.0116 15.5182 1.07264 15.9955 1.46276C16.4736 1.85392 15.6837 2.33057 15.9338 2.77936Z" fill="#60A5FA"/>
  <path d="M15.4701 1.91828C15.5039 2.01503 15.3818 2.08704 15.2886 2.08674C15.1074 2.08645 14.9334 2.00747 14.7527 1.99029C14.5721 1.97325 14.3592 2.04629 14.2995 2.23669C14.2594 2.36411 14.3 2.50309 14.3149 2.63703C14.3299 2.77112 14.3012 2.93618 14.1879 2.98478C14.0884 2.84313 14.1232 2.61362 14.002 2.49464C13.8991 2.39359 13.7385 2.42752 13.6131 2.48946C13.5086 2.54117 13.405 2.61392 13.3537 2.72771C13.2332 2.99485 13.4533 3.3266 13.3642 3.60856C13.3346 3.70279 13.2732 3.77983 13.2118 3.85244C13.1364 3.94163 13.0557 4.03068 12.954 4.07765C12.8524 4.12477 12.7241 4.12047 12.6441 4.03631C12.5088 3.89437 12.5832 3.64471 12.5487 3.44142C12.5122 3.22629 12.3477 3.05871 12.3123 2.84343C12.2927 2.7246 12.3145 2.60251 12.3384 2.48472C12.3993 2.18231 12.4754 1.87842 12.6204 1.61365C12.8584 1.17937 13.2701 0.884079 13.7107 0.7491C14.1514 0.614121 14.6199 0.628197 15.0705 0.713096C15.2669 0.750138 15.465 0.801996 15.6361 0.91564C15.8369 1.04899 16.0209 1.27242 16.2538 1.24916C16.1912 1.31228 16.1161 1.35984 16.0355 1.38755C16.1435 1.44355 16.2415 1.52342 16.3221 1.62135C16.291 1.67929 16.2319 1.71085 16.1731 1.71514C16.2353 1.83279 16.1943 2.02377 16.0547 2.04066C15.9558 2.05252 15.8451 1.9325 15.7443 1.91591C15.7692 1.93057 15.7964 1.96747 15.8218 1.98584C15.7577 2.00925 15.5048 2.01799 15.4701 1.91828Z" fill="#60A5FA"/>
  <path d="M13.8749 3.16397C13.8759 3.17746 13.8582 3.18427 13.848 3.17716C13.8376 3.1699 13.8337 3.15567 13.8307 3.14249C13.8188 3.0927 13.8078 3.03892 13.8239 2.99062C13.8398 2.94217 13.8946 2.90661 13.9338 2.93387C13.9659 2.84986 13.9422 2.74407 13.8787 2.68658C13.8152 2.62909 13.7171 2.62509 13.65 2.6771C13.5959 2.71888 13.5652 2.78837 13.5423 2.85682C13.5235 2.91283 13.5082 2.97343 13.5195 3.03196C13.5288 3.0807 13.5557 3.12263 13.5819 3.16308C13.6124 3.2099 13.6428 3.25687 13.6731 3.30369C13.7026 3.34903 13.7393 3.39896 13.7896 3.40044C13.84 3.40193 13.8815 3.34977 13.8911 3.29466C13.9006 3.23969 13.8856 3.18323 13.8685 3.13049" fill="#60A5FA"/>
  <path d="M15.7765 2.9592C15.8583 2.91712 15.9452 2.86971 16.034 2.88616C16.1678 2.9109 16.2488 3.07833 16.242 3.22901C16.2351 3.37984 16.1639 3.5163 16.0945 3.6461C15.9762 3.86746 15.8579 4.08882 15.7369 4.3084C15.6554 4.45612 15.5682 4.60844 15.4351 4.69867C15.2695 4.81113 15.0569 4.80757 14.8727 4.74001C14.6885 4.67244 14.5264 4.54769 14.3672 4.42471C14.3741 4.30914 14.4776 4.23698 14.5488 4.15238C14.6867 3.9888 14.7151 3.74374 14.6947 3.52045C14.6628 3.17078 14.8449 3.25553 15.0972 3.2019C15.3314 3.15211 15.5602 3.07047 15.7765 2.9592Z" fill="#60A5FA"/>
  <path d="M14.1014 2.82678C14.3365 3.01969 14.5817 3.19437 14.8374 3.35143C14.8779 3.37632 14.9144 3.30728 14.8738 3.28224C14.6181 3.12518 14.3729 2.95049 14.1379 2.75758C14.1005 2.72706 14.0645 2.79655 14.1014 2.82678Z" fill="#60A5FA"/>
  <path d="M13.3366 3.55266C13.726 3.84514 14.1086 4.14843 14.4843 4.46269C14.5213 4.49366 14.5573 4.42417 14.5206 4.3935C14.145 4.07924 13.7625 3.77594 13.3729 3.48347C13.3345 3.45457 13.2984 3.52391 13.3366 3.55266Z" fill="#60A5FA"/>
  <path d="M14.9034 3.74342C14.9087 3.66386 14.9065 3.57777 14.9479 3.51258C14.9951 3.4382 15.0833 3.41553 15.1625 3.39182C15.3044 3.3493 15.4413 3.28574 15.5683 3.2035C15.5908 3.18884 15.6144 3.17328 15.6406 3.17194C15.7003 3.16928 15.7418 3.24514 15.738 3.31167C15.7342 3.37804 15.7008 3.43686 15.6756 3.49732L15.6694 3.53258C15.6727 3.54606 15.6847 3.55436 15.6941 3.56355C15.7409 3.60859 15.7389 3.69601 15.7011 3.75038C15.6633 3.80461 15.5997 3.8298 15.5382 3.83499C15.4978 3.83839 15.4485 3.83958 15.4289 3.87914C15.4196 3.89781 15.4201 3.92033 15.4197 3.94181C15.4149 4.14836 15.2714 4.34097 15.0898 4.38468C15.1027 4.42691 15.1083 4.4721 15.1066 4.5167C15.1059 4.53359 15.1034 4.55196 15.0921 4.56307C15.0734 4.58115 15.0445 4.56871 15.0228 4.55552C14.8884 4.47447 14.6952 4.43061 14.7414 4.23889C14.7836 4.0642 14.9034 3.94181 14.9034 3.74342Z" fill="#60A5FA"/>
  <path d="M13.6239 3.42287C13.685 3.41768 13.7482 3.41116 13.8013 3.37368C13.8517 3.33841 13.8873 3.27885 13.9168 3.21766C14.0602 2.91985 14.0941 2.53876 14.2982 2.30007C14.5476 2.00863 14.9385 2.0467 15.2832 2.04626C15.5583 2.04596 15.8334 2.00877 16.1018 1.93543C16.1514 1.92195 16.2021 1.90639 16.2431 1.87009C16.3162 1.80519 16.3443 1.68696 16.3475 1.57657C16.3595 1.16289 16.0976 0.813223 15.8182 0.580158C15.3293 0.172406 14.73 -0.0332487 14.1393 0.00438545C13.5485 0.0420196 12.9697 0.322497 12.5182 0.790108C12.2783 1.03829 12.0676 1.35329 12.0013 1.72904C11.9602 1.96166 11.9768 2.20346 12.004 2.43905C12.0281 2.64692 12.0614 2.85732 12.1431 3.04179C12.4238 3.67623 13.1405 3.46406 13.6239 3.42287Z" fill="#60A5FA"/>
  <path d="M13.2072 0.316307C12.838 0.458991 12.4858 0.692797 12.2563 1.04499C12.0269 1.39703 11.9383 1.87975 12.0933 2.27906C12.1394 2.39789 12.2122 2.51301 12.3206 2.55984C12.4657 2.62251 12.6336 2.5428 12.7437 2.42026C12.9635 2.17564 13.0803 1.83812 13.3037 1.58861C13.4861 1.38488 13.7151 1.29079 13.9069 1.11181C14.0724 0.957422 14.1357 0.695463 14.0208 0.473955C13.8539 0.152287 13.4696 0.214814 13.2072 0.316307Z" fill="#60A5FA"/>
  <path d="M13.7928 4.45999L13.7966 4.49777L13.7738 4.51941C13.7315 4.54326 13.687 4.56252 13.641 4.57645C13.5328 4.22174 13.4602 3.8534 13.4251 3.48076C13.4214 3.44135 13.4183 3.40016 13.4315 3.36342C13.4542 3.30015 13.5922 3.21125 13.6446 3.26829C13.6766 3.30296 13.6397 3.60863 13.6428 3.66805C13.6568 3.93845 13.7072 4.20648 13.7928 4.45999Z" fill="#60A5FA"/>
  <path d="M15.2215 2.4417C15.3656 2.36272 15.4847 2.34094 15.6441 2.3442C15.7144 2.34569 15.7898 2.32183 15.7912 2.22967L15.7854 2.22093C15.738 2.21278 15.6919 2.23011 15.6443 2.22997C15.5833 2.22982 15.5279 2.22493 15.4672 2.23797C15.3681 2.25916 15.2476 2.30864 15.1912 2.40762C15.1781 2.43014 15.2027 2.45192 15.2215 2.4417Z" fill="#60A5FA"/>
  <path d="M15.2591 2.68352C15.3519 2.62203 15.4503 2.62233 15.5541 2.6047C15.6065 2.59566 15.6682 2.58677 15.6952 2.5315C15.7012 2.5195 15.6915 2.50469 15.6792 2.50839C15.6446 2.51862 15.6162 2.54158 15.5818 2.55358C15.5443 2.56647 15.5049 2.57166 15.467 2.58203C15.3939 2.60188 15.3203 2.63433 15.2578 2.68115L15.2591 2.68352Z" fill="#60A5FA"/>
  <path d="M15.5106 2.59013C15.5029 2.62539 15.4824 2.71459 15.5338 2.72451C15.5902 2.73533 15.5913 2.64006 15.5842 2.60183L15.5641 2.57946L15.5584 2.57812L15.5355 2.5885L15.5287 2.61887L15.5343 2.64036L15.534 2.66925L15.5404 2.65473L15.5386 2.6368C15.5363 2.62124 15.5328 2.60569 15.5304 2.59013H15.5106Z" fill="#60A5FA"/>
  <path d="M15.388 2.72333C15.4265 2.74644 15.4683 2.758 15.5122 2.75459C15.545 2.75193 15.5937 2.74377 15.6095 2.70777L15.603 2.69532C15.5745 2.69473 15.5495 2.71577 15.5213 2.72185C15.4789 2.73088 15.437 2.72392 15.3981 2.70377C15.3865 2.69784 15.3763 2.71637 15.388 2.72333Z" fill="#60A5FA"/>
  <path d="M15.4727 2.81317C15.4922 2.81377 15.5118 2.81362 15.5282 2.80102L15.5234 2.78132C15.5064 2.78058 15.49 2.78606 15.4727 2.78606C15.457 2.78621 15.4571 2.81273 15.4727 2.81317Z" fill="#60A5FA"/>
</svg>