<svg xmlns="http://www.w3.org/2000/svg" width="24" height="25" viewBox="0 0 24 25" fill="none">
  <path fill-rule="evenodd" clip-rule="evenodd" d="M10.7587 4.5L11.882 4.5C12.9459 4.5 13.9186 5.10114 14.3944 6.05279C14.5315 6.32687 14.8116 6.5 15.118 6.5H15.459C15.4842 6.5 15.5089 6.49999 15.5334 6.49999C15.9634 6.49986 16.2821 6.49977 16.5647 6.54006C18.3254 6.79113 19.7089 8.17461 19.9599 9.93534C20.0002 10.2179 20.0001 10.5366 20 10.9666C20 10.9911 20 11.0158 20 11.041V11.959C20 11.9842 20 12.009 20 12.0334C20.0001 12.4635 20.0002 12.7821 19.9599 13.0647C19.7089 14.8254 18.3254 16.2089 16.5647 16.4599C16.2821 16.5002 15.9635 16.5001 15.5334 16.5C15.509 16.5 15.4842 16.5 15.459 16.5H15.118C14.0541 16.5 13.0814 15.8989 12.6056 14.9472C12.4685 14.6731 12.1884 14.5 11.882 14.5H7V20.5C7 21.0523 6.55229 21.5 6 21.5C5.44772 21.5 5 21.0523 5 20.5L5 10.2587C4.99999 9.45373 4.99998 8.78937 5.04419 8.24817C5.09012 7.68608 5.18868 7.16937 5.43597 6.68404C5.81947 5.93139 6.43139 5.31947 7.18404 4.93597C7.66937 4.68868 8.18608 4.59012 8.74817 4.54419C9.28937 4.49998 9.95373 4.49999 10.7587 4.5Z" fill="white"/>
</svg>