<svg xmlns="http://www.w3.org/2000/svg" width="22" height="18" viewBox="0 0 22 18" fill="none">
    <path
        d="M4.0138 1.77598C5.85068 0.283819 8.4821 0.283819 10.319 1.77598C10.5201 1.93938 10.7269 2.14618 11.0305 2.44989L11.0735 2.4929C11.1191 2.53855 11.1441 2.56347 11.1627 2.58141L11.1664 2.58494L11.1701 2.58141C11.1887 2.56347 11.2136 2.53855 11.2593 2.4929L11.3023 2.44989C11.6059 2.14618 11.8127 1.93938 12.0138 1.77598C13.8507 0.283819 16.4821 0.283819 18.319 1.77598C18.5201 1.93938 18.7269 2.14619 19.0305 2.44992L19.4512 2.8706C20.0004 3.41953 20.3747 3.79364 20.6393 4.18127C21.4226 5.32888 21.6771 6.72137 21.4029 8.02813C21.327 8.00975 21.2479 8 21.1664 8H15.7353C14.7338 8 14.4414 7.98981 14.1908 7.9137C13.9392 7.8373 13.7051 7.71204 13.502 7.54509C13.2997 7.37877 13.129 7.14114 12.5735 6.30786L11.9984 5.4453C11.754 5.07864 11.2984 4.91521 10.8766 5.04291C10.4548 5.17061 10.1664 5.55933 10.1664 6V8.96541C10.1447 8.94658 10.1228 8.92805 10.1007 8.90982C9.69442 8.57592 9.22633 8.32541 8.72317 8.1726C8.15184 7.9991 7.54004 7.99946 6.72937 7.99995L1.16638 8C1.08492 8 1.00573 8.00974 0.929912 8.02812C0.655678 6.72137 0.910209 5.32888 1.69351 4.18127C1.95808 3.79364 2.33235 3.41955 2.88153 2.87063L3.30229 2.44988C3.60591 2.14618 3.81267 1.93937 4.0138 1.77598Z"
        fill="#647067" />
    <path
        d="M1.82568 10C2.07919 10.3274 2.41808 10.6662 2.88154 11.1294L5.96409 14.2119C6.73042 14.9783 7.34853 15.5964 7.88997 16.056C8.44745 16.5293 8.98909 16.893 9.6213 17.0984C10.6255 17.4247 11.7073 17.4247 12.7115 17.0984C13.3437 16.893 13.8853 16.5293 14.4428 16.056C14.9843 15.5964 15.6024 14.9782 16.3687 14.2119L19.4512 11.1294C19.9147 10.6662 20.2536 10.3274 20.5071 10L15.6034 10.0001C14.7927 10.0005 14.1809 10.0009 13.6096 9.8274C13.1064 9.67459 12.6383 9.42408 12.2321 9.09018C12.2099 9.07195 12.188 9.05342 12.1664 9.03459V12C12.1664 12.4407 11.8779 12.8294 11.4562 12.9571C11.0344 13.0848 10.5788 12.9214 10.3343 12.5547L9.75929 11.6921C9.20377 10.8589 9.03311 10.6212 8.83075 10.4549C8.62763 10.288 8.39358 10.1627 8.142 10.0863C7.89137 10.0102 7.59898 10 6.5975 10H1.82568Z"
        fill="#647067" />
</svg>