<svg xmlns="http://www.w3.org/2000/svg" width="24" height="25" viewBox="0 0 24 25" fill="none">
    <path fill-rule="evenodd" clip-rule="evenodd" d="M11.073 21.5247C11.6755 21.7205 12.3245 21.7205 12.9271 21.5247C13.3309 21.3935 13.6594 21.1659 13.9618 20.9092C14.2483 20.666 14.5699 20.3444 14.9426 19.9716L17.6631 17.2511C17.9457 16.9686 18.1231 16.7912 18.2843 16.6056C19.2803 15.4592 19.8764 14.02 19.9828 12.505C20 12.2598 20 12.0021 20 11.5905L20 11.4581C20.0001 10.5835 20.0001 10.0421 19.9401 9.58632C19.5266 6.44519 17.0548 3.97343 13.9137 3.5599C13.458 3.49989 12.9329 3.49994 12.0875 3.5H11.9125C11.0671 3.49994 10.5421 3.49989 10.0863 3.5599C6.94519 3.97343 4.47343 6.44519 4.0599 9.58632C3.99989 10.0421 3.99993 10.5835 4 11.4581L4.00001 11.5903C3.99999 12.002 3.99998 12.2598 4.0172 12.505C4.12357 14.02 4.71973 15.4592 5.71572 16.6056C5.87697 16.7912 6.05432 16.9686 6.33692 17.2511L9.05744 19.9716C9.43011 20.3443 9.75174 20.666 10.0382 20.9092C10.3406 21.1659 10.6691 21.3935 11.073 21.5247ZM14 11.5C14 11.8066 14 11.9599 13.9799 12.0881C13.8678 12.8052 13.3052 13.3677 12.5882 13.4799C12.4599 13.5 12.3066 13.5 12 13.5C11.6934 13.5 11.5402 13.5 11.4119 13.4799C10.6948 13.3677 10.1323 12.8052 10.0201 12.0881C10 11.9599 10 11.8066 10 11.5C10 11.1934 10 11.0401 10.0201 10.9119C10.1323 10.1948 10.6948 9.63226 11.4119 9.52007C11.5402 9.5 11.6934 9.5 12 9.5C12.3066 9.5 12.4599 9.5 12.5882 9.52007C13.3052 9.63226 13.8678 10.1948 13.9799 10.9119C14 11.0401 14 11.1934 14 11.5Z" fill="white"/>
  </svg>