<svg xmlns="http://www.w3.org/2000/svg" width="20" height="16" viewBox="0 0 20 16" fill="none">
  <path d="M7.91257 4.46298e-06H12.0875C12.9329 -6.32479e-05 13.4579 -0.000105329 13.9137 0.059895C15.1348 0.220661 16.2548 0.692488 17.192 1.39378L16.0811 2.50467C14.8814 3.70439 14.0236 4.5611 13.2967 5.17819C12.5787 5.7877 12.0545 6.10448 11.5451 6.27C10.5409 6.59629 9.45913 6.59629 8.45492 6.27C7.94548 6.10448 7.42128 5.7877 6.70331 5.17819C5.97641 4.5611 5.1186 3.70439 3.91888 2.50467L2.808 1.39379C3.74521 0.692491 4.86519 0.220661 6.08633 0.059895C6.54207 -0.000105329 7.06713 -6.32479e-05 7.91257 4.46298e-06Z" fill="white"/>
  <path d="M1.39379 2.808C0.692491 3.74521 0.220661 4.86519 0.059895 6.08633C-0.000105329 6.54207 -6.32479e-05 7.06713 4.46298e-06 7.91257V8.08745C-6.32479e-05 8.93288 -0.000105329 9.45794 0.059895 9.91369C0.473433 13.0548 2.94519 15.5266 6.08633 15.9401C6.54208 16.0001 7.06714 16.0001 7.91258 16H12.0874C12.9329 16.0001 13.4579 16.0001 13.9137 15.9401C17.0548 15.5266 19.5266 13.0548 19.9401 9.91369C20.0001 9.45795 20.0001 8.93289 20 8.08748V7.91254C20.0001 7.06712 20.0001 6.54207 19.9401 6.08633C19.7794 4.86518 19.3075 3.7452 18.6062 2.80799L17.464 3.95026C16.3025 5.11172 15.3875 6.02671 14.591 6.70287C13.7785 7.39269 13.0237 7.89251 12.1631 8.17212C10.7572 8.62892 9.24279 8.62892 7.83688 8.17212C6.97634 7.89251 6.22153 7.39269 5.40896 6.70287C4.61248 6.02671 3.69752 5.11174 2.53607 3.95028L1.39379 2.808Z" fill="white"/>
</svg>