<svg xmlns="http://www.w3.org/2000/svg" width="24" height="25" viewBox="0 0 24 25" fill="none">
    <path fill-rule="evenodd" clip-rule="evenodd" d="M5.3806 5.58658C5.87614 4.39024 6.81594 3.43398 8.0006 2.91716C8.00198 3.19589 8.00651 3.44486 8.02135 3.66238C8.04385 3.99221 8.09336 4.32212 8.22836 4.64805C8.53284 5.38313 9.11687 5.96716 9.85195 6.27164C10.1779 6.40664 10.5078 6.45615 10.8376 6.47865C11.1509 6.50002 11.5294 6.50001 11.968 6.5H12.032C12.4706 6.50001 12.8491 6.50002 13.1624 6.47865C13.4922 6.45615 13.8221 6.40664 14.1481 6.27164C14.8831 5.96716 15.4672 5.38313 15.7716 4.64805C15.9066 4.32212 15.9561 3.99221 15.9787 3.66238C15.9935 3.44486 15.998 3.19589 15.9994 2.91716C17.1841 3.43398 18.1239 4.39024 18.6194 5.58658C18.8305 6.09628 18.9181 6.63456 18.9596 7.24331C19 7.8353 19 8.56268 19 9.46441V15.5355C19 16.4372 19 17.1647 18.9596 17.7567C18.9181 18.3654 18.8305 18.9037 18.6194 19.4134C18.1119 20.6386 17.1386 21.6119 15.9134 22.1194C15.4037 22.3305 14.8654 22.4181 14.2567 22.4596C13.6647 22.5 12.9373 22.5 12.0355 22.5H11.9645C11.0627 22.5 10.3353 22.5 9.74331 22.4596C9.13456 22.4181 8.59628 22.3305 8.08658 22.1194C6.86144 21.6119 5.88807 20.6386 5.3806 19.4134C5.16948 18.9037 5.08192 18.3654 5.04038 17.7567C4.99999 17.1647 4.99999 16.4373 5 15.5355V9.46448C4.99999 8.56274 4.99999 7.83531 5.04038 7.24331C5.08192 6.63456 5.16948 6.09628 5.3806 5.58658ZM12 19.5C12.5523 19.5 13 19.0523 13 18.5C13 17.9477 12.5523 17.5 12 17.5C11.4477 17.5 11 17.9477 11 18.5C11 19.0523 11.4477 19.5 12 19.5Z" fill="white"/>
    <path d="M12.0355 2.5C12.811 2.49999 13.4576 2.49999 14 2.52568C14 2.99072 13.9992 3.29352 13.9833 3.52624C13.9677 3.75424 13.9411 3.84107 13.9239 3.88268C13.8224 4.12771 13.6277 4.32239 13.3827 4.42388C13.3411 4.44112 13.2542 4.46773 13.0262 4.48329C12.7893 4.49946 12.4796 4.5 12 4.5C11.5204 4.5 11.2107 4.49946 10.9738 4.48329C10.7458 4.46773 10.6589 4.44112 10.6173 4.42388C10.3723 4.32239 10.1776 4.12771 10.0761 3.88268C10.0589 3.84107 10.0323 3.75424 10.0167 3.52624C10.0008 3.29352 10 2.99072 10 2.52568C10.5424 2.49999 11.189 2.49999 11.9645 2.5H12.0355Z" fill="white"/>
  </svg>