<svg xmlns="http://www.w3.org/2000/svg" width="143" height="38" viewBox="0 0 143 38" fill="none">
    <path
        d="M19.6629 35.5506C17.5118 35.9221 15.3228 36.0334 13.0584 36.33L6.15165 16.4395V37.1837C4.00051 37.4063 2.03803 37.7031 0 38V0H5.73676L13.5867 21.5609V0H19.6629V35.5506ZM31.5513 13.916C33.8914 13.916 37.4768 13.8047 39.6279 13.8047V19.742C36.9482 19.742 33.8159 19.742 31.5513 19.8534V28.6856C35.0991 28.463 38.6467 28.1659 42.2319 28.0545V33.769L25.5127 35.0681V0H42.2319V5.93751H31.5513V13.916ZM64.6877 5.93765H58.4228V33.2501C56.3847 33.2501 54.3467 33.2501 52.3845 33.3241V5.93765H46.1196V0H64.688L64.6877 5.93765ZM74.5002 13.5079H82.7656V19.4453H74.5002V32.9162H68.5745V0H85.4452V5.93751H74.5002V13.5079ZM95.2577 27.7207C98.6922 27.7947 102.164 28.0549 105.523 28.2401V34.1035C100.126 33.7693 94.7294 33.4357 89.2193 33.3241V0H95.2577V27.7207ZM110.618 34.5117C112.543 34.6232 114.581 34.7346 116.543 34.9569V0H110.618V34.5117ZM143 0L135.338 18.0723L143 38C140.735 37.7031 138.471 37.2949 136.206 36.9237L131.866 25.9396L127.451 36.0334C125.262 35.662 123.148 35.5506 120.96 35.2538L128.734 17.8495L121.714 0H128.205L132.168 9.98245L136.395 0H143Z"
        fill="#647067" />
</svg>